<?xml version="1.0" encoding="UTF-8" standalone="no"?>
<svg width="55px" height="35px" viewBox="0 0 55 35" version="1.1" xmlns="http://www.w3.org/2000/svg" xmlns:xlink="http://www.w3.org/1999/xlink" xmlns:sketch="http://www.bohemiancoding.com/sketch/ns">
    <!-- Generator: Sketch 3.3.2 (12043) - http://www.bohemiancoding.com/sketch -->
    <title>Imported Layers</title>
    <desc>Created with Sketch.</desc>
    <defs></defs>
    <g id="Page-1" stroke="none" stroke-width="1" fill="none" fill-rule="evenodd" sketch:type="MSPage">
        <g id="Artboard-1" sketch:type="MSArtboardGroup">
            <g id="Imported-Layers" sketch:type="MSLayerGroup">
                <path d="M47.2915385,5.83835294 L44.2728846,9.59505882 C43.9111538,10.0461176 43.2511538,10.1181176 42.8005769,9.756 L39.0478846,6.732 C38.5973077,6.36988235 37.9373077,6.44188235 37.5755769,6.89294118 L34.5569231,10.6496471 C34.1930769,11.1007059 33.5351923,11.1727059 33.0846154,10.8105882 L28.5153846,7.13011765 C25.0355769,4.32847059 20.3669231,3.00282353 15.5332692,3.97694118 C8.33673077,5.42752941 2.99326923,11.9308235 2.97846154,19.2769412 C2.95942308,28.8148235 11.165,35.9936471 20.3690385,34.9941176 C24.2888462,34.5684706 27.7157692,32.7324706 30.1971154,30.0472941 C30.6011538,29.6089412 30.5228846,28.9122353 30.0596154,28.5395294 L24.8473077,24.3423529 C24.4517308,24.0225882 23.87,24.0162353 23.5040385,24.3698824 C22.1925,25.6404706 20.3711538,26.4091765 18.3255769,26.3181176 C15.2794231,26.1847059 12.5971154,23.9315294 11.9159615,20.9583529 C10.9682692,16.8204706 13.8409615,12.9070588 17.9278846,12.4644706 C19.8359615,12.2569412 21.6446154,12.8435294 23.0280769,13.9574118 L23.0090385,13.9828235 L34.4236538,23.1734118 C34.8742308,23.5376471 35.5321154,23.4656471 35.8959615,23.0145882 L38.9146154,19.2578824 C39.2763462,18.8047059 39.9363462,18.7348235 40.3869231,19.0969412 L44.1396154,22.1188235 C44.5901923,22.4830588 45.2501923,22.4110588 45.6119231,21.96 L54.1369231,11.3505882 C54.4986538,10.8995294 54.4288462,10.2388235 53.9782692,9.87670588 L48.7638462,5.67741176 C48.3132692,5.31529412 47.6553846,5.38729412 47.2915385,5.83835294" id="Fill-1" fill="#56BBE9" sketch:type="MSShapeGroup"></path>
                <path d="M48.9923077,9.38117647 L45.2417308,12.4072941 C44.7911538,12.7694118 44.1311538,12.6995294 43.7694231,12.2484706 L40.7465385,8.49388235 C40.3848077,8.04282353 39.7248077,7.97082353 39.2742308,8.33505882 L35.5236538,11.3611765 C35.0730769,11.7232941 34.4151923,11.6534118 34.0513462,11.2023529 L30.3726923,6.63035294 C27.5698077,3.14894118 23.2925,0.857647059 18.3615385,0.777176471 C11.0211538,0.654352941 4.41480769,5.86588235 2.83461538,13.0404706 C0.780576923,22.3538824 7.26634615,31.1209412 16.4725,32.112 C20.3923077,32.5355294 24.1301923,31.4724706 27.1276923,29.3781176 C27.6163462,29.0371765 27.6882692,28.3404706 27.3159615,27.8767059 L23.1169231,22.6609412 C22.7996154,22.2670588 22.2326923,22.1357647 21.8011538,22.4025882 C20.2484615,23.364 18.3044231,23.724 16.3244231,23.1988235 C13.3776923,22.4174118 11.2369231,19.6432941 11.2073077,16.5917647 C11.1628846,12.3458824 14.8034615,9.13976471 18.8925,9.58023529 C20.7984615,9.78564706 22.4421154,10.7449412 23.5569231,12.1277647 L23.5315385,12.1489412 L32.7228846,23.5672941 C33.0867308,24.0183529 33.7446154,24.0903529 34.1951923,23.7261176 L37.9457692,20.7 C38.3963462,20.3378824 39.0542308,20.4077647 39.4180769,20.8588235 L42.4409615,24.6134118 C42.8026923,25.0644706 43.4626923,25.1364706 43.9132692,24.7722353 L54.5028846,16.2296471 C54.9534615,15.8654118 55.0253846,15.2068235 54.6615385,14.7557647 L50.4646154,9.54 C50.1007692,9.08894118 49.4428846,9.01905882 48.9923077,9.38117647" id="Fill-2" fill="#B1E858" sketch:type="MSShapeGroup"></path>
                <path d="M46.0751923,7.88611765 L42.6694231,11.2955294 C42.2611538,11.7042353 41.5990385,11.7042353 41.1886538,11.2955294 L37.7828846,7.88611765 C37.3746154,7.47741176 36.7103846,7.47741176 36.3021154,7.88611765 L32.8963462,11.2955294 C32.4880769,11.7042353 31.8238462,11.7042353 31.4155769,11.2955294 L27.2694231,7.14494118 C24.1111538,3.98329412 19.6138462,2.16211765 14.7019231,2.60894118 C7.39115385,3.27388235 1.37923077,9.16305882 0.573269231,16.4668235 C-0.471730769,25.9454118 6.91307692,33.9670588 16.17,33.9670588 C20.1130769,33.9670588 23.7176923,32.5122353 26.4740385,30.1087059 C26.9225,29.7190588 26.9203846,29.016 26.4994231,28.5967059 L21.7694231,23.8595294 C21.4098077,23.5016471 20.8323077,23.4317647 20.4325,23.7430588 C18.9919231,24.8654118 17.0965385,25.4329412 15.0721154,25.1216471 C12.0576923,24.66 9.63346154,22.1315294 9.27807692,19.0990588 C8.78096154,14.8849412 12.0576923,11.304 16.17,11.304 C18.0865385,11.304 19.8232692,12.0832941 21.0798077,13.3411765 L21.0565385,13.3623529 L31.4155769,23.7324706 C31.8238462,24.1411765 32.4880769,24.1411765 32.8963462,23.7324706 L36.3021154,20.3230588 C36.7103846,19.9143529 37.3746154,19.9143529 37.7828846,20.3230588 L41.1886538,23.7324706 C41.5990385,24.1411765 42.2611538,24.1411765 42.6694231,23.7324706 L52.2880769,14.1035294 C52.6963462,13.6948235 52.6963462,13.032 52.2880769,12.6232941 L47.5559615,7.88611765 C47.1476923,7.47741176 46.4855769,7.47741176 46.0751923,7.88611765" id="Fill-3" fill="#FFFFFF" sketch:type="MSShapeGroup"></path>
            </g>
        </g>
    </g>
</svg>